<svg width="33.000000" height="30.000000" viewBox="0 0 33 30" fill="none" xmlns="http://www.w3.org/2000/svg" xmlns:xlink="http://www.w3.org/1999/xlink">
	<desc>
			Created with Pixso.
	</desc>
	<defs>
		<clipPath id="clip102_1262">
			<rect id="cc-paypal-brands" width="33.000000" height="30.000000" fill="white" fill-opacity="0"/>
		</clipPath>
	</defs>
	<rect id="cc-paypal-brands" width="33.000000" height="30.000000" fill="#FFFFFF" fill-opacity="0"/>
	<g clip-path="url(#clip102_1262)">
		<path id="Vector" d="M10.6735 15.1289C10.6735 15.8438 10.1177 16.3887 9.41302 16.3887C8.88593 16.3887 8.49634 16.084 8.49634 15.5098C8.49634 14.7949 9.04065 14.2207 9.73956 14.2207C10.2724 14.2207 10.6735 14.5547 10.6735 15.1289ZM4.612 12.2871L4.34271 12.2871C4.25677 12.2871 4.17084 12.3457 4.15936 12.4453L3.91302 14.0098L4.38281 13.9922C5.013 13.9922 5.5 13.9043 5.61456 13.1602C5.74634 12.375 5.2594 12.2871 4.612 12.2871ZM20.8828 12.2871L20.625 12.2871C20.5219 12.2871 20.4531 12.3457 20.4417 12.4453L20.201 14.0098L20.6594 13.9922C21.4042 13.9922 21.9198 13.8164 21.9198 12.9375C21.9141 12.3164 21.3698 12.2871 20.8828 12.2871ZM33 4.6875L33 25.3125C33 26.8652 31.7682 28.125 30.25 28.125L2.75 28.125C1.23175 28.125 0 26.8652 0 25.3125L0 4.6875C0 3.13477 1.23175 1.875 2.75 1.875L30.25 1.875C31.7682 1.875 33 3.13477 33 4.6875ZM7.35052 12.6211C7.35052 11.3906 6.42242 10.9805 5.36249 10.9805L3.07086 10.9805C2.92761 10.9805 2.78436 11.0977 2.77289 11.2559L1.83331 17.2383C1.81616 17.3555 1.9021 17.4727 2.01666 17.4727L3.10522 17.4727C3.25989 17.4727 3.40314 17.3027 3.42029 17.1387L3.6781 15.5801C3.73541 15.1582 4.43439 15.3047 4.70935 15.3047C6.3479 15.3047 7.35052 14.3086 7.35052 12.6211ZM12.1745 13.1367L11.0859 13.1367C10.8682 13.1367 10.8568 13.459 10.8453 13.6172C10.513 13.1191 10.0318 13.0312 9.48749 13.0312C8.08386 13.0312 7.01251 14.291 7.01251 15.6797C7.01251 16.8223 7.71149 17.5664 8.82867 17.5664C9.3443 17.5664 9.98596 17.2793 10.3469 16.8691C10.3182 16.957 10.2896 17.1445 10.2896 17.2324C10.2896 17.3672 10.3469 17.4668 10.4729 17.4668L11.4583 17.4668C11.613 17.4668 11.7448 17.2969 11.7734 17.1328L12.3578 13.3652C12.375 13.2539 12.2891 13.1367 12.1745 13.1367ZM14.4948 18.873L18.1443 13.4473C18.1729 13.418 18.1729 13.3887 18.1729 13.3477C18.1729 13.248 18.087 13.1426 17.9896 13.1426L16.8896 13.1426C16.7922 13.1426 16.6891 13.2012 16.6318 13.2891L15.1135 15.5742L14.4833 13.377C14.4375 13.248 14.3115 13.1426 14.1682 13.1426L13.0969 13.1426C12.9995 13.1426 12.9135 13.248 12.9135 13.3477C12.9135 13.418 14.0307 16.6758 14.1281 16.9863C13.9734 17.209 12.9537 18.6621 12.9537 18.8379C12.9537 18.9434 13.0396 19.0254 13.137 19.0254L14.237 19.0254C14.3401 19.0195 14.4375 18.9609 14.4948 18.873ZM23.6213 12.6211C23.6213 11.3906 22.6932 10.9805 21.6334 10.9805L19.3588 10.9805C19.2042 10.9805 19.0609 11.0977 19.0438 11.2559L18.1156 17.2324C18.1042 17.3496 18.1901 17.4668 18.299 17.4668L19.4734 17.4668C19.588 17.4668 19.674 17.3789 19.7026 17.2793L19.9604 15.5801C20.0177 15.1582 20.7167 15.3047 20.9916 15.3047C22.6188 15.3047 23.6213 14.3086 23.6213 12.6211ZM28.4453 13.1367L27.3568 13.1367C27.139 13.1367 27.1276 13.459 27.1104 13.6172C26.7953 13.1191 26.3083 13.0312 25.7526 13.0312C24.3489 13.0312 23.2776 14.291 23.2776 15.6797C23.2776 16.8223 23.9766 17.5664 25.0938 17.5664C25.6266 17.5664 26.2682 17.2793 26.612 16.8691C26.5948 16.957 26.5547 17.1445 26.5547 17.2324C26.5547 17.3672 26.612 17.4668 26.738 17.4668L27.7292 17.4668C27.8839 17.4668 28.0156 17.2969 28.0443 17.1328L28.6287 13.3652C28.6458 13.2539 28.5599 13.1367 28.4453 13.1367ZM31.1667 11.1855C31.1667 11.0684 31.0807 10.9805 30.9833 10.9805L29.9235 10.9805C29.8375 10.9805 29.7516 11.0508 29.7401 11.1387L28.812 17.2324L28.7948 17.2617C28.7948 17.3672 28.8807 17.4668 28.9953 17.4668L29.9406 17.4668C30.0839 17.4668 30.2271 17.2969 30.2385 17.1328L31.1667 11.2031L31.1667 11.1855ZM26.0104 14.2207C25.3115 14.2207 24.7672 14.7891 24.7672 15.5098C24.7672 16.0781 25.1682 16.3887 25.6953 16.3887C26.3828 16.3887 26.9385 15.8496 26.9385 15.1289C26.9443 14.5547 26.5432 14.2207 26.0104 14.2207Z" fill="#FFFFFF" fill-opacity="1.000000" fill-rule="nonzero"/>
	</g>
</svg>
