<svg width="18.000000" height="20.000000" viewBox="0 0 18 20" fill="none" xmlns="http://www.w3.org/2000/svg" xmlns:xlink="http://www.w3.org/1999/xlink">
	<desc>
			Created with Pixso.
	</desc>
	<defs>
		<clipPath id="clip102_1246">
			<rect id="facebook-square-brands" width="18.000000" height="20.000000" fill="white" fill-opacity="0"/>
		</clipPath>
	</defs>
	<rect id="facebook-square-brands" width="18.000000" height="20.000000" fill="#FFFFFF" fill-opacity="0"/>
	<g clip-path="url(#clip102_1246)">
		<path id="Vector" d="M16.0714 1L1.92859 1C1.41705 1 0.926514 1.19751 0.56488 1.54919C0.203186 1.90076 0 2.37769 0 2.875L0 16.625C0 17.1223 0.203186 17.5992 0.56488 17.9508C0.926514 18.3025 1.41705 18.5 1.92859 18.5L7.44305 18.5L7.44305 12.5504L4.9118 12.5504L4.9118 9.75L7.44305 9.75L7.44305 7.6156C7.44305 5.18787 8.92969 3.84692 11.2066 3.84692C12.2971 3.84692 13.4373 4.03589 13.4373 4.03589L13.4373 6.4187L12.1809 6.4187C10.9431 6.4187 10.5569 7.16565 10.5569 7.93164L10.5569 9.75L13.3204 9.75L12.8784 12.5504L10.5569 12.5504L10.5569 18.5L16.0714 18.5C16.5829 18.5 17.0735 18.3025 17.4351 17.9508C17.7968 17.5992 18 17.1223 18 16.625L18 2.875C18 2.37769 17.7968 1.90076 17.4351 1.54919C17.0735 1.19751 16.5829 1 16.0714 1Z" fill="#FFFFFF" fill-opacity="1.000000" fill-rule="nonzero"/>
	</g>
</svg>
