<svg width="18.000000" height="20.000000" viewBox="0 0 18 20" fill="none" xmlns="http://www.w3.org/2000/svg" xmlns:xlink="http://www.w3.org/1999/xlink">
	<desc>
			Created with Pixso.
	</desc>
	<defs>
		<clipPath id="clip102_1237">
			<rect id="pinterest-square-brands" width="18.000000" height="20.000000" fill="white" fill-opacity="0"/>
		</clipPath>
	</defs>
	<rect id="pinterest-square-brands" width="18.000000" height="20.000000" fill="#FFFFFF" fill-opacity="0"/>
	<g clip-path="url(#clip102_1237)">
		<path id="Vector" d="M18 3.125L18 16.875C18 17.9102 17.1362 18.75 16.0714 18.75L6.20355 18.75C6.59735 18.1094 7.10358 17.1875 7.30444 16.4336C7.42499 15.9844 7.91919 14.1523 7.91919 14.1523C8.2406 14.75 9.18079 15.2539 10.1813 15.2539C13.1585 15.2539 15.3 12.5938 15.3 9.28906C15.3 6.12109 12.6402 3.75 9.21698 3.75C4.95801 3.75 2.70001 6.52734 2.70001 9.55469C2.70001 10.9609 3.47144 12.7109 4.70087 13.2695C4.88971 13.3555 4.98615 13.3164 5.03033 13.1406C5.0625 13.0078 5.23126 12.3555 5.30359 12.0547C5.3277 11.957 5.31561 11.875 5.23529 11.7812C4.82947 11.3008 4.5 10.418 4.5 9.59375C4.5 7.47656 6.14734 5.42969 8.95581 5.42969C11.3786 5.42969 13.0781 7.03516 13.0781 9.33203C13.0781 11.9258 11.7321 13.7227 9.97632 13.7227C9.00806 13.7227 8.28485 12.9453 8.51385 11.9883C8.79108 10.8477 9.32947 9.61719 9.32947 8.79297C9.32947 6.72266 6.29596 7.00781 6.29596 9.76953C6.29596 10.6172 6.58929 11.1953 6.58929 11.1953C5.3277 16.3828 5.13885 16.4492 5.40002 18.7188L5.4884 18.75L1.92859 18.75C0.863831 18.75 0 17.9102 0 16.875L0 3.125C0 2.08984 0.863831 1.25 1.92859 1.25L16.0714 1.25C17.1362 1.25 18 2.08984 18 3.125Z" fill="#FFFFFF" fill-opacity="1.000000" fill-rule="nonzero"/>
	</g>
</svg>
