<svg width="18.000000" height="20.000000" viewBox="0 0 18 20" fill="none" xmlns="http://www.w3.org/2000/svg" xmlns:xlink="http://www.w3.org/1999/xlink">
	<desc>
			Created with Pixso.
	</desc>
	<defs>
		<clipPath id="clip102_1229">
			<rect id="twitter-square-brands" width="18.000000" height="20.000000" fill="white" fill-opacity="0"/>
		</clipPath>
	</defs>
	<rect id="twitter-square-brands" width="18.000000" height="20.000000" fill="#FFFFFF" fill-opacity="0"/>
	<g clip-path="url(#clip102_1229)">
		<path id="Vector" d="M16.0714 1.25L1.92859 1.25C0.863831 1.25 0 2.08984 0 3.125L0 16.875C0 17.9102 0.863831 18.75 1.92859 18.75L16.0714 18.75C17.1362 18.75 18 17.9102 18 16.875L18 3.125C18 2.08984 17.1362 1.25 16.0714 1.25ZM14.1067 7.45312C14.1147 7.5625 14.1147 7.67578 14.1147 7.78516C14.1147 11.1719 11.463 15.0742 6.61743 15.0742C5.12274 15.0742 3.73663 14.6523 2.57141 13.9258C2.78436 13.9492 2.98926 13.957 3.20624 13.957C4.43976 13.957 5.57275 13.5508 6.47681 12.8633C5.31964 12.8398 4.34735 12.1016 4.01385 11.0859C4.41962 11.1445 4.78528 11.1445 5.20312 11.0391C3.99774 10.8008 3.09375 9.76953 3.09375 8.52344L3.09375 8.49219C3.4433 8.68359 3.85315 8.80078 4.28302 8.81641C3.92163 8.58264 3.62531 8.26562 3.42059 7.89343C3.21588 7.52124 3.10913 7.10559 3.1098 6.68359C3.1098 6.20703 3.2384 5.76953 3.46741 5.39062C4.7652 6.94531 6.71387 7.96094 8.89954 8.07031C8.52588 6.33203 9.86383 4.92188 11.471 4.92188C12.2303 4.92188 12.9134 5.23047 13.3955 5.73047C13.9902 5.62109 14.5607 5.40625 15.067 5.11328C14.8701 5.70703 14.4562 6.20703 13.9099 6.52344C14.4402 6.46875 14.9545 6.32422 15.4286 6.125C15.071 6.63672 14.621 7.08984 14.1067 7.45312Z" fill="#FFFFFF" fill-opacity="1.000000" fill-rule="nonzero"/>
	</g>
</svg>
