<svg width="33.000000" height="26.250000" viewBox="0 0 33 26.25" fill="none" xmlns="http://www.w3.org/2000/svg" xmlns:xlink="http://www.w3.org/1999/xlink">
	<desc>
			Created with Pixso.
	</desc>
	<defs/>
	<path id="Vector" d="M29.8146 9.61523C29.8146 9.15234 29.4995 8.90625 28.9208 8.90625L28.6401 8.90625L28.6401 10.3652L28.9094 10.3652C29.4995 10.3652 29.8146 10.1074 29.8146 9.61523ZM30.25 0L2.75 0C1.23175 0 0 1.25977 0 2.8125L0 23.4375C0 24.9902 1.23175 26.25 2.75 26.25L30.25 26.25C31.7682 26.25 33 24.9902 33 23.4375L33 2.8125C33 1.25977 31.7682 0 30.25 0ZM27.7234 8.13867C29.0182 8.13867 30.7542 7.89844 30.7542 9.56836C30.7542 10.3066 30.376 10.7812 29.6828 10.9277L31.1609 12.9434L30.038 12.9434L28.7661 11.0215L28.6401 11.0215L28.6401 12.9434L27.7234 12.9434L27.7234 8.13867ZM24.5208 8.14453L27.1161 8.14453L27.1161 8.96484L25.4375 8.96484L25.4375 10.0312L27.0588 10.0312L27.0588 10.8398L25.4375 10.8398L25.4375 12.1406L27.1161 12.1406L27.1161 12.9492L24.5208 12.9492L24.5208 8.14453ZM20.5849 8.14453L21.8396 11.3789L23.1115 8.14453L24.1141 8.14453L22.0802 13.0781L21.5875 13.0781L19.5823 8.14453L20.5849 8.14453ZM17.3823 7.96875C18.7974 7.96875 19.9375 9.14062 19.9375 10.582C19.9375 12.0293 18.7917 13.1953 17.3823 13.1953C15.9672 13.1953 14.8271 12.0234 14.8271 10.582C14.8271 9.13477 15.9729 7.96875 17.3823 7.96875ZM14.5578 8.32617L14.5578 9.43945C13.4062 8.26172 11.8766 9.16406 11.8766 10.5527C11.8766 12.0176 13.4521 12.8086 14.5578 11.6777L14.5578 12.791C12.8563 13.6289 10.9313 12.457 10.9313 10.5527C10.9313 8.72461 12.8276 7.44727 14.5578 8.32617ZM8.98907 12.2109C9.64221 12.2109 10.2724 11.3145 8.79999 10.7812C7.94061 10.459 7.6427 10.1133 7.6427 9.45117C7.6427 8.0918 9.39581 7.61133 10.4901 8.61328L10.0089 9.24609C9.41302 8.56641 8.58228 8.88281 8.58228 9.39258C8.58228 9.65039 8.737 9.79688 9.28699 9.99609C10.3297 10.3828 10.639 10.7285 10.639 11.4961C10.639 13.2246 8.41614 13.6875 7.39636 12.1582L7.98645 11.5781C8.19843 11.9941 8.55365 12.2109 8.98907 12.2109ZM3.17395 12.9492L1.83331 12.9492L1.83331 8.14453L3.17395 8.14453C4.66925 8.14453 5.7005 9.14062 5.7005 10.5527C5.7005 11.6367 4.94427 12.9492 3.17395 12.9492ZM7.04114 12.9492L6.12445 12.9492L6.12445 8.14453L7.04114 8.14453L7.04114 12.9492ZM31.1667 23.4961C31.1667 23.9766 30.7771 24.375 30.3073 24.375L7.33331 24.375C18.1958 22.2891 29.2589 16.2188 31.1667 15L31.1667 23.4961ZM4.2453 9.35156C3.94739 9.06445 3.58075 8.96484 2.9906 8.96484L2.75 8.96484L2.75 12.1406L2.9906 12.1406C3.58075 12.1406 3.9646 12.0234 4.2453 11.7656C4.5719 11.4609 4.75519 11.0156 4.75519 10.5527C4.75519 10.0898 4.5719 9.64453 4.2453 9.35156Z" fill="#FFFFFF" fill-opacity="1.000000" fill-rule="nonzero"/>
</svg>
