<svg width="33.000000" height="26.250000" viewBox="0 0 33 26.25" fill="none" xmlns="http://www.w3.org/2000/svg" xmlns:xlink="http://www.w3.org/1999/xlink">
	<desc>
			Created with Pixso.
	</desc>
	<defs/>
	<path id="Vector" d="M27.6661 22.1074C27.6661 22.5059 27.4026 22.793 27.0245 22.793C26.6349 22.793 26.3828 22.4883 26.3828 22.1074C26.3828 21.7266 26.6349 21.4219 27.0245 21.4219C27.4026 21.4219 27.6661 21.7266 27.6661 22.1074ZM9.85989 21.4219C9.45312 21.4219 9.21823 21.7266 9.21823 22.1074C9.21823 22.4883 9.45312 22.793 9.85989 22.793C10.2323 22.793 10.4844 22.5059 10.4844 22.1074C10.4786 21.7266 10.2323 21.4219 9.85989 21.4219ZM16.5917 21.4043C16.2823 21.4043 16.0932 21.6094 16.0474 21.9141L17.1417 21.9141C17.0901 21.5801 16.8896 21.4043 16.5917 21.4043ZM22.7677 21.4219C22.3781 21.4219 22.1432 21.7266 22.1432 22.1074C22.1432 22.4883 22.3781 22.793 22.7677 22.793C23.1573 22.793 23.4094 22.5059 23.4094 22.1074C23.4094 21.7266 23.1573 21.4219 22.7677 21.4219ZM28.8349 22.9512C28.8349 22.9688 28.8521 22.9805 28.8521 23.0156C28.8521 23.0332 28.8349 23.0449 28.8349 23.0801C28.8177 23.0977 28.8177 23.1094 28.8062 23.127C28.7891 23.1445 28.7776 23.1562 28.7432 23.1562C28.726 23.1738 28.7146 23.1738 28.6802 23.1738C28.663 23.1738 28.6516 23.1738 28.6172 23.1562C28.6 23.1562 28.5885 23.1387 28.5714 23.127C28.5542 23.1094 28.5427 23.0977 28.5427 23.0801C28.5255 23.0508 28.5255 23.0332 28.5255 23.0156C28.5255 22.9863 28.5255 22.9688 28.5427 22.9512C28.5427 22.9219 28.5599 22.9043 28.5714 22.8867C28.5885 22.8691 28.6 22.8691 28.6172 22.8574C28.6458 22.8398 28.663 22.8398 28.6802 22.8398C28.7089 22.8398 28.726 22.8398 28.7432 22.8574C28.7719 22.875 28.7891 22.875 28.8062 22.8867C28.8234 22.8984 28.8177 22.9219 28.8349 22.9512ZM28.7089 23.0332C28.7375 23.0332 28.7375 23.0156 28.7547 23.0156C28.7719 22.998 28.7719 22.9863 28.7719 22.9688C28.7719 22.9512 28.7719 22.9395 28.7547 22.9219C28.7375 22.9219 28.726 22.9043 28.6917 22.9043L28.6 22.9043L28.6 23.1094L28.6458 23.1094L28.6458 23.0273L28.663 23.0273L28.726 23.1094L28.7719 23.1094L28.7089 23.0332ZM33 2.8125L33 23.4375C33 24.9902 31.7682 26.25 30.25 26.25L2.75 26.25C1.23178 26.25 0 24.9902 0 23.4375L0 2.8125C0 1.25977 1.23178 0 2.75 0L30.25 0C31.7682 0 33 1.25977 33 2.8125ZM3.66666 10.9922C3.66666 15.4746 7.22449 19.1074 11.6016 19.1074C13.1599 19.1074 14.6896 18.627 15.9844 17.7539C11.8078 14.2793 11.8365 7.72266 15.9844 4.24805C14.6896 3.36914 13.1599 2.89453 11.6016 2.89453C7.22449 2.88867 3.66666 6.52734 3.66666 10.9922ZM16.5 17.3672C20.5391 14.1445 20.5219 7.86328 16.5 4.62305C12.4781 7.86328 12.4609 14.1504 16.5 17.3672ZM8.34738 21.8379C8.34738 21.3281 8.02084 20.9941 7.50522 20.9766C7.24167 20.9766 6.96094 21.0586 6.77188 21.3574C6.63437 21.1172 6.39948 20.9766 6.07291 20.9766C5.85519 20.9766 5.63751 21.0586 5.46564 21.293L5.46564 21.0352L4.99582 21.0352L4.99582 23.1855L5.46564 23.1855C5.46564 22.0781 5.32239 21.416 5.98126 21.416C6.56561 21.416 6.45105 22.0137 6.45105 23.1855L6.90366 23.1855C6.90366 22.1133 6.76041 21.416 7.41928 21.416C8.00363 21.416 7.88907 22.002 7.88907 23.1855L8.35886 23.1855L8.35886 21.8379L8.34738 21.8379ZM10.9198 21.0352L10.4672 21.0352L10.4672 21.293C10.3125 21.0996 10.0948 20.9766 9.79688 20.9766C9.20676 20.9766 8.75418 21.457 8.75418 22.1074C8.75418 22.7637 9.20676 23.2383 9.79688 23.2383C10.0948 23.2383 10.3125 23.127 10.4672 22.9219L10.4672 23.1914L10.9198 23.1914L10.9198 21.0352ZM13.2401 22.5352C13.2401 21.6562 11.9281 22.0547 11.9281 21.6445C11.9281 21.3105 12.6099 21.3633 12.988 21.5801L13.1771 21.1992C12.6385 20.8418 11.4469 20.8477 11.4469 21.6797C11.4469 22.5176 12.7589 22.166 12.7589 22.5586C12.7589 22.9277 11.9854 22.8984 11.5729 22.6055L11.3724 22.9746C12.0141 23.4199 13.2401 23.3262 13.2401 22.5352ZM15.2682 23.0801L15.1422 22.6816C14.9245 22.8047 14.4432 22.9395 14.4432 22.4414L14.4432 21.4688L15.1938 21.4688L15.1938 21.0352L14.4432 21.0352L14.4432 20.3789L13.9734 20.3789L13.9734 21.0352L13.538 21.0352L13.538 21.4629L13.9734 21.4629L13.9734 22.4414C13.9734 23.4727 14.9646 23.2852 15.2682 23.0801ZM16.0302 22.2949L17.6057 22.2949C17.6057 21.3457 17.1818 20.9707 16.6089 20.9707C16.0016 20.9707 15.5662 21.4336 15.5662 22.1016C15.5662 23.3027 16.8609 23.502 17.5026 22.9336L17.2849 22.582C16.838 22.957 16.162 22.9219 16.0302 22.2949ZM19.4161 21.0352C19.1526 20.918 18.7516 20.9297 18.5453 21.293L18.5453 21.0352L18.0755 21.0352L18.0755 23.1855L18.5453 23.1855L18.5453 21.9727C18.5453 21.293 19.0896 21.3809 19.2787 21.4805L19.4161 21.0352ZM20.0234 22.1074C20.0234 21.4395 20.688 21.2227 21.2094 21.6152L21.4271 21.2344C20.7625 20.7012 19.5536 20.9941 19.5536 22.1133C19.5536 23.2734 20.837 23.5078 21.4271 22.9922L21.2094 22.6113C20.6823 22.9922 20.0234 22.7637 20.0234 22.1074ZM23.8448 21.0352L23.375 21.0352L23.375 21.293C22.8995 20.6484 21.662 21.0117 21.662 22.1074C21.662 23.2324 22.9453 23.5547 23.375 22.9219L23.375 23.1914L23.8448 23.1914L23.8448 21.0352ZM25.7755 21.0352C25.638 20.9648 25.1453 20.8652 24.9047 21.293L24.9047 21.0352L24.4521 21.0352L24.4521 23.1855L24.9047 23.1855L24.9047 21.9727C24.9047 21.3281 25.4203 21.3691 25.638 21.4805L25.7755 21.0352ZM28.0844 20.1621L27.6318 20.1621L27.6318 21.293C27.162 20.6543 25.9188 20.9941 25.9188 22.1074C25.9188 23.2441 27.2078 23.5488 27.6318 22.9219L27.6318 23.1914L28.0844 23.1914L28.0844 20.1621ZM28.5198 15.7617L28.5198 16.0312L28.5656 16.0312L28.5656 15.7617L28.6745 15.7617L28.6745 15.7148L28.4109 15.7148L28.4109 15.7617L28.5198 15.7617ZM28.8979 23.0156C28.8979 22.9863 28.8979 22.9512 28.8807 22.9219C28.8636 22.9043 28.8521 22.875 28.8349 22.8574C28.8177 22.8398 28.7891 22.8281 28.7719 22.8105C28.7432 22.8105 28.7089 22.793 28.6802 22.793C28.663 22.793 28.6344 22.8105 28.6 22.8105C28.5714 22.8281 28.5542 22.8398 28.537 22.8574C28.5083 22.875 28.4911 22.9043 28.4911 22.9219C28.474 22.9512 28.474 22.9863 28.474 23.0156C28.474 23.0332 28.474 23.0625 28.4911 23.0977C28.4911 23.1152 28.5083 23.1445 28.537 23.1621C28.5542 23.1797 28.5656 23.1914 28.6 23.209C28.6287 23.2266 28.663 23.2266 28.6802 23.2266C28.7089 23.2266 28.7432 23.2266 28.7719 23.209C28.7891 23.1914 28.8177 23.1797 28.8349 23.1621C28.8521 23.1445 28.8636 23.1152 28.8807 23.0977C28.8979 23.0625 28.8979 23.0332 28.8979 23.0156ZM29.0812 15.709L29.001 15.709L28.9094 15.9141L28.8177 15.709L28.7375 15.709L28.7375 16.0254L28.7833 16.0254L28.7833 15.7852L28.875 15.9902L28.938 15.9902L29.0182 15.7852L29.0182 16.0254L29.0812 16.0254L29.0812 15.709ZM29.3333 10.9922C29.3333 6.52734 25.7755 2.88867 21.3984 2.88867C19.8401 2.88867 18.3104 3.36914 17.0156 4.24219C21.1464 7.7168 21.2094 14.291 17.0156 17.748C18.3104 18.627 19.8516 19.1016 21.3984 19.1016C25.7755 19.1074 29.3333 15.4746 29.3333 10.9922Z" fill="#FFFFFF" fill-opacity="1.000000" fill-rule="nonzero"/>
</svg>
