<svg width="18.000000" height="20.000000" viewBox="0 0 18 20" fill="none" xmlns="http://www.w3.org/2000/svg" xmlns:xlink="http://www.w3.org/1999/xlink">
	<desc>
			Created with Pixso.
	</desc>
	<defs>
		<clipPath id="clip102_1241">
			<rect id="vimeo-square-brands" width="18.000000" height="20.000000" fill="white" fill-opacity="0"/>
		</clipPath>
	</defs>
	<rect id="vimeo-square-brands" width="18.000000" height="20.000000" fill="#FFFFFF" fill-opacity="0"/>
	<g clip-path="url(#clip102_1241)">
		<path id="Vector" d="M16.0714 1.25L1.92859 1.25C0.863831 1.25 0 2.08984 0 3.125L0 16.875C0 17.9102 0.863831 18.75 1.92859 18.75L16.0714 18.75C17.1362 18.75 18 17.9102 18 16.875L18 3.125C18 2.08984 17.1362 1.25 16.0714 1.25ZM15.4205 7.09375C15.3643 8.30859 14.4884 9.97656 12.7969 12.0898C11.0491 14.2969 9.57056 15.4023 8.36115 15.4023C7.6098 15.4023 6.979 14.7305 6.46069 13.3867C5.44824 9.78125 5.01831 7.66797 4.18262 7.66797C4.08618 7.66797 3.74866 7.86328 3.17413 8.25781L2.57141 7.5C4.05402 6.23438 5.46832 4.82812 6.35223 4.75C7.35266 4.65625 7.96741 5.32031 8.20044 6.74609C9.02411 11.8086 9.38971 12.5742 10.8844 10.2812C11.4228 9.45312 11.712 8.82812 11.7482 8.39453C11.8848 7.11328 10.7197 7.19922 9.93213 7.52734C10.5629 5.51562 11.7723 4.53906 13.5522 4.59375C14.8741 4.63281 15.4969 5.46875 15.4205 7.09375Z" fill="#FFFFFF" fill-opacity="1.000000" fill-rule="nonzero"/>
	</g>
</svg>
