<svg width="18.000000" height="20.000000" viewBox="0 0 18 20" fill="none" xmlns="http://www.w3.org/2000/svg" xmlns:xlink="http://www.w3.org/1999/xlink">
	<desc>
			Created with Pixso.
	</desc>
	<defs>
		<clipPath id="clip102_1234">
			<rect id="youtube-square-brands" width="18.000000" height="20.000000" fill="white" fill-opacity="0"/>
		</clipPath>
	</defs>
	<rect id="youtube-square-brands" width="18.000000" height="20.000000" fill="#FFFFFF" fill-opacity="0"/>
	<g clip-path="url(#clip102_1234)">
		<path id="Vector" d="M7.50537 7.89453L11.3304 10.0078L7.50537 12.1211L7.50537 7.89453ZM18 3.125L18 16.875C18 17.9102 17.1362 18.75 16.0714 18.75L1.92859 18.75C0.863831 18.75 0 17.9102 0 16.875L0 3.125C0 2.08984 0.863831 1.25 1.92859 1.25L16.0714 1.25C17.1362 1.25 18 2.08984 18 3.125ZM16.3125 10.0117C16.3125 10.0117 16.3125 7.68359 16.0071 6.56641C15.8384 5.94922 15.3442 5.46484 14.7134 5.30078C13.5764 5 9 5 9 5C9 5 4.42365 5 3.28662 5.30078C2.65582 5.46484 2.16162 5.94922 1.99286 6.56641C1.6875 7.67969 1.6875 10.0117 1.6875 10.0117C1.6875 10.0117 1.6875 12.3398 1.99286 13.457C2.16162 14.0742 2.65582 14.5391 3.28662 14.7031C4.42365 15 9 15 9 15C9 15 13.5764 15 14.7134 14.6992C15.3442 14.5352 15.8384 14.0703 16.0071 13.4531C16.3125 12.3398 16.3125 10.0117 16.3125 10.0117Z" fill="#FFFFFF" fill-opacity="1.000000" fill-rule="nonzero"/>
	</g>
</svg>
